<svg width="16" height="16" viewBox="0 0 16 16" fill="none" xmlns="http://www.w3.org/2000/svg">
<path d="M14.58 3.14L8.58001 13.5267C8.52186 13.6293 8.43754 13.7146 8.33565 13.774C8.23375 13.8333 8.11793 13.8646 8.00001 13.8646C7.88208 13.8646 7.76626 13.8333 7.66436 13.774C7.56247 13.7146 7.47815 13.6293 7.42001 13.5267L1.42 3.14C1.36149 3.03865 1.33069 2.92369 1.33069 2.80667C1.33069 2.68964 1.36149 2.57468 1.42 2.47333C1.47874 2.3716 1.56332 2.28719 1.66517 2.22865C1.76702 2.17012 1.88253 2.13953 2 2.14H14C14.1175 2.13953 14.233 2.17012 14.3348 2.22865C14.4367 2.28719 14.5213 2.3716 14.58 2.47333C14.6385 2.57468 14.6693 2.68964 14.6693 2.80667C14.6693 2.92369 14.6385 3.03865 14.58 3.14ZM3.15334 3.47333L8.00001 11.86L12.8467 3.47333H3.15334Z" fill="#7B7A85"/>
</svg>
